<svg width="634" height="566" xmlns="http://www.w3.org/2000/svg" data-name="Layer 1">
 <title>Books</title>

 <g>
  <title>Layer 1</title>
  <path d="m189.73866,216.547l0,0a53.13136,53.13136 0 0 1 8.61915,-11.50844l97.09359,-98.43281s33.82807,-5.638 40.87559,11.276l-124.03627,101.48425l-22.55206,-2.819z" fill="#f2f2f2" id="svg_11"/>
  <path d="m18.23657,80.88226a13.70673,13.70673 0 1 1 13.70672,-13.70673a13.72244,13.72244 0 0 1 -13.70672,13.70673zm0,-25.129a11.42227,11.42227 0 1 0 11.42227,11.42227a11.435,11.435 0 0 0 -11.42227,-11.42227z" fill="#e3e3e3" id="svg_3"/>
  <path d="m628.989,436.44598l-22.5489,0l0,-22.54887l22.5489,0l0,22.54887zm-20.81434,-1.73453l19.07982,0l0,-19.07978l-19.07985,0l0.00003,19.07978z" fill="#e3e3e3" id="svg_4"/>
  <path d="m90.73544,415.97736l-15.38019,-16.48943l16.48943,-15.3802l15.38019,16.48944l-16.48943,15.38019zm-12.92868,-16.40411l13.014,13.9526l13.95259,-13.014l-13.014,-13.9526l-13.95259,13.014z" fill="#e3e3e3" id="svg_5"/>
  <path d="m606.89787,566.18962q-37.04832,-5.79987 -71.24294,-9.86652l8.77843,-17.55692c-3.047,-1.01568 -16.25092,9.14115 -16.25092,9.14115l11.17256,-50.78415c-15.23525,2.03136 -22.345,53.8312 -22.345,53.8312l-17.26669,-17.26661l8.49959,19.549c-69.7584,-7.32985 -129.95337,-9.61731 -180.55371,-9.09267l7.51347,-15.02689c-3.047,-1.01568 -16.25092,9.14115 -16.25092,9.14115l11.17251,-50.78415c-15.23525,2.03137 -22.345,53.8312 -22.345,53.8312l-17.26661,-17.26661l9.00241,20.70557a1013.49859,1013.49859 0 0 0 -103.6226,8.34474c7.49729,-23.35644 33.67921,-45.80908 33.67921,-45.80908c-20.1314,6.26309 -30.6047,16.46666 -36.02556,25.9249a407.85873,407.85873 0 0 1 21.806,-141.20492s-40.62732,91.41147 -34.53322,152.35245l0.77323,10.82523c-35.34514,5.51391 -53.08091,11.01195 -53.08091,11.01195l478.38667,-0.00002z" fill="#e3e3e3" id="svg_7"/>
  <circle cx="355.42503" cy="287.85888" r="158.76958" fill="#fe4e16" opacity="0.3" id="svg_8"/>
  <polygon points="290.2229919433594,85.87300109863281 184.510009765625,214.13699340820312 340.9649963378906,398.7820129394531 445.26800537109375,276.156005859375 290.2229919433594,85.87300109863281 " fill="#fe4e16" id="svg_9"/>
  <polygon points="290.2229919433594,85.87300109863281 184.510009765625,214.13699340820312 340.9649963378906,398.7820129394531 445.26800537109375,276.156005859375 290.2229919433594,85.87300109863281 " opacity="0.1" id="svg_10"/>
  <path d="m188.73866,215.547l0,0a53.13136,53.13136 0 0 1 8.61915,-11.50844l97.09359,-98.43281s33.82807,-5.638 40.87559,11.276l-124.03627,101.48425l-22.55206,-2.819z" fill="#f2f2f2" id="svg_24"/>
  <path d="m184.8054,214.43274l143.76933,219.8825s14.095,9.86653 28.19007,4.22851l147.29308,-99.37l-156.45488,-236.79652l-140.9503,109.94126l-21.8473,2.11425z" fill="#fe4e16" id="svg_12"/>
  <path transform="rotate(-34.8379 299.109 678.488)" fill="#e3e3e3" opacity="undefined" d="m297.96735,571.15802l2.28364,0l0,214.66084l-2.28364,0l0,-214.66084z" id="svg_16"/>
  <g id="svg_20">
   <rect transform="rotate(-35.7003 -346.285 221.298)" x="133.75384" y="554.20334" width="111.09199" height="2.28426" fill="#ffffff" id="svg_13"/>
   <path transform="rotate(-33.4813 -428.431 216.72)" fill="#ffffff" opacity="undefined" d="m117.28747,589.34119l2.28442,0l0,214.62012l-2.28442,0l0,-214.62012z" id="svg_2"/>
   <path transform="rotate(-33.4813 -318.431 139.72)" fill="#ffffff" opacity="undefined" d="m227.28747,512.34119l2.28442,0l0,214.62012l-2.28442,0l0,-214.62012z" id="svg_14"/>
   <path transform="rotate(-36.3441 -439.965 330.923)" fill="#ffffff" opacity="undefined" d="m168.62997,869.61597l118.96652,0l0,2.285l-118.96652,0l0,-2.285z" id="svg_15"/>
   <rect transform="rotate(-42.5448 -336.329 261.232)" x="91.94073" y="581.45081" width="151.38646" height="1.4087" fill="#ffffff" id="svg_17"/>
   <rect transform="rotate(-41.4385 -339.307 256.621)" x="93.67413" y="577.99803" width="155.49191" height="1.41013" fill="#ffffff" id="svg_18"/>
   <rect transform="rotate(-39.8127 -342.302 244.151)" x="94.71541" y="566.57163" width="157.53272" height="1.41026" fill="#ffffff" id="svg_19"/>
  </g>
 </g>
</svg>